<svg width="612" height="69" viewBox="0 0 612 69" fill="none" xmlns="http://www.w3.org/2000/svg">
<path fill-rule="evenodd" clip-rule="evenodd" d="M0 30.5554V61.0554H20.5H41V54.7699C41 46.3674 42.2235 47.0554 27.2855 47.0554H15V42.5554V38.0554H24.7855C36.83 38.0554 36 38.6104 36 30.5554C36 22.5004 36.83 23.0554 24.7855 23.0554H15V19.0554V15.0554H27.2855C42.195 15.0554 41 15.7089 41 7.55537C41 -0.756626 43.2975 0.0553746 19.7855 0.0553746H0V30.5554ZM102 0.555375C102 0.830375 101.1 1.05537 100 1.05537C98.9 1.05537 98 1.28037 98 1.55537C98 1.83037 97.55 2.05537 97 2.05537C96.45 2.05537 96 2.28037 96 2.55537C96 2.83037 95.55 3.05537 95 3.05537C94.45 3.05537 94 3.28037 94 3.55537C94 3.83037 93.5995 4.05537 93.1105 4.05537C92.621 4.05537 91.8965 4.50537 91.5 5.05537C91.1035 5.60537 90.4865 6.05537 90.129 6.05537C89.2815 6.05537 84 11.3369 84 12.1844C84 12.5419 83.55 13.1589 83 13.5554C82.45 13.9519 82 14.6764 82 15.1659C82 15.6549 81.775 16.0554 81.5 16.0554C81.225 16.0554 81 16.5054 81 17.0554C81 17.6054 80.775 18.0554 80.5 18.0554C80.225 18.0554 80 18.5054 80 19.0554C80 19.6054 79.775 20.0554 79.5 20.0554C79.225 20.0554 79 20.7304 79 21.5554C79 22.3804 78.775 23.0554 78.5 23.0554C78.189 23.0554 78 25.8889 78 30.5554C78 35.2219 78.189 38.0554 78.5 38.0554C78.775 38.0554 79 38.7304 79 39.5554C79 40.3804 79.225 41.0554 79.5 41.0554C79.775 41.0554 80 41.7304 80 42.5554C80 43.3804 80.225 44.0554 80.5 44.0554C80.775 44.0554 81 44.4559 81 44.9449C81 45.4344 81.45 46.1589 82 46.5554C82.55 46.9519 83 47.5674 83 47.9239C83 48.7684 90.287 56.0554 91.1315 56.0554C91.488 56.0554 92.1035 56.5054 92.5 57.0554C92.8965 57.6054 93.621 58.0554 94.1105 58.0554C94.5995 58.0554 95 58.2804 95 58.5554C95 58.8304 95.45 59.0554 96 59.0554C96.55 59.0554 97 59.2804 97 59.5554C97 59.8304 97.675 60.0554 98.5 60.0554C99.325 60.0554 100 60.2804 100 60.5554C100 60.8334 101.334 61.0554 103 61.0554C104.666 61.0554 106 61.2774 106 61.5554C106 61.8334 107.334 62.0554 109 62.0554C110.666 62.0554 112 61.8334 112 61.5554C112 61.2804 113.028 61.0554 114.285 61.0554C115.6 61.0554 116.875 60.7519 117.285 60.3409C118.105 59.5219 118.243 58.0554 117.5 58.0554C117.225 58.0554 117 57.6959 117 57.2559C117 56.8164 116.325 55.8259 115.5 55.0554C114.675 54.2849 114 53.3849 114 53.0554C114 52.7259 113.325 51.8259 112.5 51.0554C111.675 50.2849 111 49.3909 111 49.0689C111 48.0704 109.631 47.0554 108.285 47.0554C107.578 47.0554 107 46.8304 107 46.5554C107 46.2804 106.1 46.0554 105 46.0554C103.9 46.0554 103 45.8304 103 45.5554C103 45.2804 102.55 45.0554 102 45.0554C101.45 45.0554 101 44.8304 101 44.5554C101 44.2804 100.655 44.0554 100.233 44.0554C99.2975 44.0554 96 40.8439 96 39.9324C96 39.5714 95.55 38.9519 95 38.5554C94.413 38.1319 94 37.2609 94 36.4449C94 35.6809 93.775 35.0554 93.5 35.0554C93.2035 35.0554 93 33.2219 93 30.5554C93 27.8889 93.2035 26.0554 93.5 26.0554C93.775 26.0554 94 25.6054 94 25.0554C94 24.5054 94.225 24.0554 94.5 24.0554C94.775 24.0554 95 23.7129 95 23.2944C95 22.8759 96.2325 21.3009 97.739 19.7944C99.2455 18.2879 100.82 17.0554 101.239 17.0554C101.657 17.0554 102 16.8304 102 16.5554C102 16.2804 102.675 16.0554 103.5 16.0554C104.325 16.0554 105 15.8304 105 15.5554C105 15.2639 106.667 15.0554 109 15.0554C111.333 15.0554 113 15.2639 113 15.5554C113 15.8304 113.675 16.0554 114.5 16.0554C115.325 16.0554 116 16.2804 116 16.5554C116 16.8304 116.343 17.0554 116.761 17.0554C117.18 17.0554 118.755 18.2879 120.261 19.7944C121.768 21.3009 123 22.8759 123 23.2944C123 23.7129 123.225 24.0554 123.5 24.0554C123.775 24.0554 124 24.7304 124 25.5554C124 26.3804 124.225 27.0554 124.5 27.0554C124.785 27.0554 125 28.5554 125 30.5554C125 32.5554 124.785 34.0554 124.5 34.0554C124.225 34.0554 124 34.7304 124 35.5554C124 36.3804 123.775 37.0554 123.5 37.0554C123.225 37.0554 123 37.3969 123 37.8149C123 38.6759 116.81 45.0554 115.974 45.0554C114.074 45.0554 113.357 48.3709 115 49.5554C115.55 49.9519 116 50.5864 116 50.9654C116 51.3439 116.675 52.2849 117.5 53.0554C118.325 53.8259 119 54.7669 119 55.1454C119 55.5244 119.45 56.1589 120 56.5554C120.55 56.9519 121 57.5864 121 57.9654C121 58.3439 121.675 59.2849 122.5 60.0554C123.325 60.8259 124 61.7259 124 62.0554C124 62.3849 124.675 63.2849 125.5 64.0554C126.325 64.8259 127 65.7199 127 66.0419C127 67.8004 128.293 68.0554 137.214 68.0554C145.666 68.0554 146 68.0174 146 67.0554C146 66.5054 145.775 66.0554 145.5 66.0554C145.225 66.0554 145 65.6959 145 65.2559C145 64.8164 144.325 63.8259 143.5 63.0554C142.675 62.2849 142 61.3849 142 61.0554C142 60.7259 141.325 59.8259 140.5 59.0554C139.675 58.2849 139 57.3849 139 57.0554C139 56.7259 138.325 55.8259 137.5 55.0554C136.675 54.2849 136 53.3439 136 52.9654C136 52.5864 135.55 51.9519 135 51.5554C133.967 50.8109 133.616 49.0554 134.5 49.0554C134.775 49.0554 135 48.6054 135 48.0554C135 47.5054 135.225 47.0554 135.5 47.0554C135.775 47.0554 136 46.6054 136 46.0554C136 45.5054 136.225 45.0554 136.5 45.0554C136.775 45.0554 137 44.6054 137 44.0554C137 43.5054 137.225 43.0554 137.5 43.0554C137.775 43.0554 138 42.6054 138 42.0554C138 41.5054 138.225 41.0554 138.5 41.0554C138.775 41.0554 139 40.1554 139 39.0554C139 37.9554 139.225 37.0554 139.5 37.0554C139.808 37.0554 140 34.5554 140 30.5554C140 26.5554 139.808 24.0554 139.5 24.0554C139.225 24.0554 139 23.3804 139 22.5554C139 21.7304 138.775 21.0554 138.5 21.0554C138.225 21.0554 138 20.3804 138 19.5554C138 18.7304 137.775 18.0554 137.5 18.0554C137.225 18.0554 137 17.6054 137 17.0554C137 16.5054 136.775 16.0554 136.5 16.0554C136.225 16.0554 136 15.6959 136 15.2559C136 14.8164 135.325 13.8259 134.5 13.0554C133.675 12.2849 133 11.3994 133 11.0879C133 10.3519 129.703 7.05537 128.967 7.05537C128.656 7.05537 127.771 6.38037 127 5.55537C126.229 4.73037 125.239 4.05537 124.799 4.05537C124.359 4.05537 124 3.83037 124 3.55537C124 3.28037 123.55 3.05537 123 3.05537C122.45 3.05537 122 2.83037 122 2.55537C122 2.28037 121.55 2.05537 121 2.05537C120.45 2.05537 120 1.83037 120 1.55537C120 1.28037 119.1 1.05537 118 1.05537C116.9 1.05537 116 0.830375 116 0.555375C116 0.245875 113.333 0.0553746 109 0.0553746C104.667 0.0553746 102 0.245875 102 0.555375ZM179.625 0.803374C178.826 1.71037 178.705 41.0554 179.5 41.0554C179.775 41.0554 180 41.9554 180 43.0554C180 44.1554 180.225 45.0554 180.5 45.0554C180.775 45.0554 181 45.5054 181 46.0554C181 46.6054 181.225 47.0554 181.5 47.0554C181.775 47.0554 182 47.5054 182 48.0554C182 48.6054 182.225 49.0554 182.5 49.0554C182.775 49.0554 183 49.3969 183 49.8149C183 50.7384 189.22 57.0554 190.13 57.0554C190.487 57.0554 191.104 57.5054 191.5 58.0554C191.896 58.6054 192.621 59.0554 193.111 59.0554C193.6 59.0554 194 59.2804 194 59.5554C194 59.8304 194.675 60.0554 195.5 60.0554C196.325 60.0554 197 60.2804 197 60.5554C197 60.8304 198.125 61.0554 199.5 61.0554C200.875 61.0554 202 61.2804 202 61.5554C202 61.8304 203.125 62.0554 204.5 62.0554C205.875 62.0554 207 61.8304 207 61.5554C207 61.2804 208.125 61.0554 209.5 61.0554C210.875 61.0554 212 60.8304 212 60.5554C212 60.2804 212.675 60.0554 213.5 60.0554C214.325 60.0554 215 59.8304 215 59.5554C215 59.2804 215.45 59.0554 216 59.0554C216.55 59.0554 217 58.8304 217 58.5554C217 58.2804 217.341 58.0554 217.758 58.0554C218.68 58.0554 226 50.8334 226 49.9239C226 49.5674 226.45 48.9519 227 48.5554C227.587 48.1319 228 47.2609 228 46.4449C228 45.6809 228.225 45.0554 228.5 45.0554C228.775 45.0554 229 44.3804 229 43.5554C229 42.7304 229.225 42.0554 229.5 42.0554C230.374 42.0554 230.165 1.64887 229.286 0.769875C228.26 -0.256625 216.74 -0.256625 215.714 0.769875C215.12 1.36387 215 4.72187 215 20.7699C215 33.2934 214.824 40.0554 214.5 40.0554C214.225 40.0554 214 40.4004 214 40.8219C214 41.8174 210.762 45.0554 209.766 45.0554C209.345 45.0554 209 45.2804 209 45.5554C209 45.8304 208.55 46.0554 208 46.0554C207.45 46.0554 207 46.2804 207 46.5554C207 46.8304 206.1 47.0554 205 47.0554C203.9 47.0554 203 46.8304 203 46.5554C203 46.2804 202.325 46.0554 201.5 46.0554C200.675 46.0554 200 45.8304 200 45.5554C200 45.2804 199.652 45.0554 199.227 45.0554C198.227 45.0554 196 42.8284 196 41.8279C196 41.4029 195.775 41.0554 195.5 41.0554C195.225 41.0554 195 40.6054 195 40.0554C195 39.5054 194.775 39.0554 194.5 39.0554C194.175 39.0554 194 32.2219 194 19.5554V0.0553746L187.125 0.0743737C181.832 0.0888737 180.106 0.256874 179.625 0.803374ZM273.625 0.803374C273.14 1.35437 273 8.17937 273 31.2844V61.0554H280.5H288V52.0554V43.0554H290.767C293.537 43.0554 297 45.2959 297 47.0879C297 47.3994 297.675 48.2849 298.5 49.0554C299.325 49.8259 300 50.7259 300 51.0554C300 51.3849 300.675 52.2849 301.5 53.0554C302.325 53.8259 303 54.7099 303 55.0194C303 55.8634 307.359 60.0554 308.237 60.0554C308.656 60.0554 309 60.2804 309 60.5554C309 60.8664 311.833 61.0554 316.5 61.0554H324V59.7559C324 58.9569 323.423 57.9169 322.5 57.0554C321.675 56.2849 321 55.3849 321 55.0554C321 54.7259 320.325 53.8259 319.5 53.0554C318.675 52.2849 318 51.3849 318 51.0554C318 50.7259 317.325 49.8259 316.5 49.0554C315.675 48.2849 315 47.3849 315 47.0554C315 46.7259 314.325 45.8259 313.5 45.0554C312.675 44.2849 312 43.3439 312 42.9654C312 42.5864 311.55 41.9519 311 41.5554C309.327 40.3494 309.774 38.7104 312.5 36.0554C313.875 34.7159 315 33.3179 315 32.9484C315 32.5784 315.45 31.9519 316 31.5554C316.587 31.1319 317 30.2609 317 29.4449C317 28.6809 317.225 28.0554 317.5 28.0554C317.806 28.0554 318 25.7219 318 22.0554C318 18.3889 317.806 16.0554 317.5 16.0554C317.225 16.0554 317 15.3804 317 14.5554C317 13.7304 316.775 13.0554 316.5 13.0554C316.225 13.0554 316 12.6054 316 12.0554C316 11.5054 315.775 11.0554 315.5 11.0554C315.225 11.0554 315 10.7129 315 10.2944C315 9.36787 309.782 4.05537 308.871 4.05537C308.514 4.05537 307.896 3.60537 307.5 3.05537C307.076 2.46837 306.205 2.05537 305.389 2.05537C304.625 2.05537 304 1.83037 304 1.55537C304 1.28037 303.1 1.05537 302 1.05537C300.9 1.05537 300 0.830375 300 0.555375C300 -0.308625 274.392 -0.0676262 273.625 0.803374ZM373 0.555375C373 0.830375 372.325 1.05537 371.5 1.05537C370.675 1.05537 370 1.28037 370 1.55537C370 1.83037 369.6 2.05537 369.111 2.05537C368.621 2.05537 367.896 2.50537 367.5 3.05537C367.104 3.60537 366.481 4.05537 366.117 4.05537C365.259 4.05537 363 6.31388 363 7.17238C363 7.53638 362.55 8.15887 362 8.55537C361.45 8.95187 361 9.67637 361 10.1659C361 10.6549 360.775 11.0554 360.5 11.0554C360.225 11.0554 360 11.9554 360 13.0554C360 14.1554 359.775 15.0554 359.5 15.0554C359.225 15.0554 359 16.1804 359 17.5554C359 18.9304 359.225 20.0554 359.5 20.0554C359.775 20.0554 360 20.9554 360 22.0554C360 23.1554 360.225 24.0554 360.5 24.0554C360.775 24.0554 361 24.4149 361 24.8549C361 25.2944 361.675 26.2849 362.5 27.0554C363.325 27.8259 364 28.8164 364 29.2559C364 29.6959 364.4 30.0554 364.889 30.0554C365.379 30.0554 366.104 30.5054 366.5 31.0554C366.896 31.6054 367.621 32.0554 368.111 32.0554C368.6 32.0554 369 32.2804 369 32.5554C369 32.8304 369.45 33.0554 370 33.0554C370.55 33.0554 371 33.2804 371 33.5554C371 33.8304 371.45 34.0554 372 34.0554C372.55 34.0554 373 34.2804 373 34.5554C373 34.8304 373.45 35.0554 374 35.0554C374.55 35.0554 375 35.2804 375 35.5554C375 35.8304 375.675 36.0554 376.5 36.0554C377.325 36.0554 378 36.2804 378 36.5554C378 36.8304 378.675 37.0554 379.5 37.0554C380.325 37.0554 381 37.2804 381 37.5554C381 37.8304 381.45 38.0554 382 38.0554C382.55 38.0554 383 38.2804 383 38.5554C383 38.8304 383.45 39.0554 384 39.0554C384.854 39.0554 385 39.3889 385 41.3279C385 43.9839 383.367 46.0554 381.272 46.0554C380.572 46.0554 380 46.2804 380 46.5554C380 46.8304 379.1 47.0554 378 47.0554C376.9 47.0554 376 46.8304 376 46.5554C376 46.2804 375.55 46.0554 375 46.0554C374.45 46.0554 374 45.8304 374 45.5554C374 45.2804 373.6 45.0554 373.111 45.0554C372.621 45.0554 371.896 44.6054 371.5 44.0554C371.104 43.5054 370.379 43.0554 369.889 43.0554C369.4 43.0554 369 42.8304 369 42.5554C369 42.2774 367.666 42.0554 366 42.0554C364.334 42.0554 363 42.2774 363 42.5554C363 42.8304 362.55 43.0554 362 43.0554C361.45 43.0554 361 43.2804 361 43.5554C361 43.8304 360.55 44.0554 360 44.0554C359.45 44.0554 359 44.2804 359 44.5554C359 44.8304 358.647 45.0554 358.215 45.0554C357.782 45.0554 357.107 45.3769 356.715 45.7699C355.895 46.5889 355.757 48.0554 356.5 48.0554C356.775 48.0554 357 48.4559 357 48.9449C357 49.4344 357.45 50.1589 358 50.5554C358.55 50.9519 359 51.5699 359 51.9289C359 52.7784 363.277 57.0554 364.126 57.0554C364.485 57.0554 365.104 57.5054 365.5 58.0554C365.896 58.6054 366.621 59.0554 367.111 59.0554C367.6 59.0554 368 59.2804 368 59.5554C368 59.8304 368.675 60.0554 369.5 60.0554C370.325 60.0554 371 60.2804 371 60.5554C371 60.8304 372.125 61.0554 373.5 61.0554C374.875 61.0554 376 61.2804 376 61.5554C376 61.8304 376.9 62.0554 378 62.0554C379.1 62.0554 380 61.8304 380 61.5554C380 61.2804 381.125 61.0554 382.5 61.0554C383.875 61.0554 385 60.8304 385 60.5554C385 60.2804 385.675 60.0554 386.5 60.0554C387.325 60.0554 388 59.8304 388 59.5554C388 59.2804 388.45 59.0554 389 59.0554C389.55 59.0554 390 58.8304 390 58.5554C390 58.2804 390.341 58.0554 390.759 58.0554C391.748 58.0554 398 51.8034 398 50.8149C398 50.3969 398.225 50.0554 398.5 50.0554C398.775 50.0554 399 49.6054 399 49.0554C399 48.5054 399.225 48.0554 399.5 48.0554C399.775 48.0554 400 46.9304 400 45.5554C400 44.1804 400.225 43.0554 400.5 43.0554C400.775 43.0554 401 42.3804 401 41.5554C401 40.7304 400.775 40.0554 400.5 40.0554C400.225 40.0554 400 38.9304 400 37.5554C400 36.1804 399.775 35.0554 399.5 35.0554C399.225 35.0554 399 34.6054 399 34.0554C399 33.5054 398.775 33.0554 398.5 33.0554C398.225 33.0554 398 32.7129 398 32.2944C398 31.3044 392.751 26.0554 391.761 26.0554C391.342 26.0554 391 25.8304 391 25.5554C391 25.2804 390.55 25.0554 390 25.0554C389.45 25.0554 389 24.8304 389 24.5554C389 24.2804 388.55 24.0554 388 24.0554C387.45 24.0554 387 23.8304 387 23.5554C387 23.2804 386.325 23.0554 385.5 23.0554C384.675 23.0554 384 22.8304 384 22.5554C384 22.2804 383.325 22.0554 382.5 22.0554C381.675 22.0554 381 21.8304 381 21.5554C381 21.2804 380.325 21.0554 379.5 21.0554C378.675 21.0554 378 20.8304 378 20.5554C378 20.2804 377.647 20.0554 377.215 20.0554C375.284 20.0554 374.285 17.1994 375.715 15.7699C376.537 14.9474 382 14.7609 382 15.5554C382 15.8304 382.675 16.0554 383.5 16.0554C384.325 16.0554 385 16.2804 385 16.5554C385 16.8304 386.125 17.0554 387.5 17.0554C388.875 17.0554 390 16.8304 390 16.5554C390 16.2804 390.45 16.0554 391 16.0554C391.55 16.0554 392 15.8304 392 15.5554C392 15.2804 392.345 15.0554 392.767 15.0554C393.893 15.0554 397 11.7564 397 10.5614C397 9.43687 391.931 4.05537 390.871 4.05537C390.514 4.05537 389.896 3.60537 389.5 3.05537C389.104 2.50537 388.379 2.05537 387.889 2.05537C387.4 2.05537 387 1.83037 387 1.55537C387 1.28037 386.325 1.05537 385.5 1.05537C384.675 1.05537 384 0.830375 384 0.555375C384 0.252375 381.833 0.0553746 378.5 0.0553746C375.167 0.0553746 373 0.252375 373 0.555375ZM489 1.05537C489 1.60537 488.775 2.05537 488.5 2.05537C488.225 2.05537 488 2.73037 488 3.55537C488 4.38037 488.225 5.05537 488.5 5.05537C488.827 5.05537 489 14.7219 489 33.0554V61.0554H496H503V56.0554C503 53.0554 503.2 51.0554 503.5 51.0554C503.792 51.0554 504 49.3889 504 47.0554V43.0554H511C515.333 43.0554 518 42.8649 518 42.5554C518 42.2804 518.675 42.0554 519.5 42.0554C520.325 42.0554 521 41.8304 521 41.5554C521 41.2804 521.45 41.0554 522 41.0554C522.55 41.0554 523 40.8304 523 40.5554C523 40.2804 523.342 40.0554 523.761 40.0554C524.687 40.0554 530 34.8369 530 33.9264C530 33.5689 530.45 32.9519 531 32.5554C531.587 32.1319 532 31.2609 532 30.4449C532 29.6809 532.225 29.0554 532.5 29.0554C532.775 29.0554 533 28.3804 533 27.5554C533 26.7304 533.225 26.0554 533.5 26.0554C533.796 26.0554 534 24.2219 534 21.5554C534 18.8889 533.796 17.0554 533.5 17.0554C533.225 17.0554 533 16.3804 533 15.5554C533 14.7304 532.775 14.0554 532.5 14.0554C532.225 14.0554 532 13.6054 532 13.0554C532 12.5054 531.775 12.0554 531.5 12.0554C531.225 12.0554 531 11.6549 531 11.1659C531 10.6764 530.55 9.95187 530 9.55537C529.45 9.15887 529 8.53637 529 8.17237C529 7.31387 526.741 5.05537 525.883 5.05537C525.519 5.05537 524.896 4.60537 524.5 4.05537C524.104 3.50537 523.379 3.05537 522.89 3.05537C522.401 3.05537 522 2.83037 522 2.55537C522 2.28037 521.55 2.05537 521 2.05537C520.45 2.05537 520 1.83037 520 1.55537C520 1.28037 519.1 1.05537 518 1.05537C516.9 1.05537 516 0.830375 516 0.555375C516 0.234375 511.167 0.0553746 502.5 0.0553746C489.333 0.0553746 489 0.0798746 489 1.05537ZM574.625 0.803374C574.14 1.35437 574 8.17937 574 31.2844V61.0554H593H612V54.0554V47.0554H600.5H589V24.2699C589 5.18888 588.884 1.36787 588.286 0.769875C587.263 -0.253125 575.53 -0.224126 574.625 0.803374ZM298 15.5554C298 15.8304 298.345 16.0554 298.767 16.0554C300.646 16.0554 303 19.3919 303 22.0554C303 24.2794 302.789 24.8004 301.267 26.3219L299.534 28.0554H293.767H288V21.5554V15.0554H293C296 15.0554 298 15.2554 298 15.5554ZM514 15.5554C514 15.8304 514.348 16.0554 514.773 16.0554C515.773 16.0554 518 18.2824 518 19.2829C518 19.7079 518.225 20.0554 518.5 20.0554C518.775 20.0554 519 20.9554 519 22.0554C519 23.1554 518.775 24.0554 518.5 24.0554C518.225 24.0554 518 24.4089 518 24.8409C518 25.8514 516.796 27.0554 515.786 27.0554C515.354 27.0554 515 27.2804 515 27.5554C515 27.8584 512.833 28.0554 509.5 28.0554H504V21.5554V15.0554H509C512 15.0554 514 15.2554 514 15.5554ZM441 45.5554C441 45.8304 440.205 46.0554 439.233 46.0554C437.334 46.0554 434 48.7524 434 50.2889C434 50.7104 433.775 51.0554 433.5 51.0554C433.225 51.0554 433 52.1804 433 53.5554C433 54.9304 433.225 56.0554 433.5 56.0554C433.775 56.0554 434 56.4004 434 56.8219C434 58.0819 437.325 61.0554 438.733 61.0554C439.43 61.0554 440 61.2804 440 61.5554C440 61.8304 440.675 62.0554 441.5 62.0554C442.325 62.0554 443 61.8304 443 61.5554C443 61.2804 443.57 61.0554 444.267 61.0554C445.675 61.0554 449 58.0819 449 56.8219C449 56.4004 449.225 56.0554 449.5 56.0554C449.775 56.0554 450 55.1554 450 54.0554C450 52.9554 449.775 52.0554 449.5 52.0554C449.225 52.0554 449 51.4829 449 50.7829C449 49.3794 446.987 47.0554 445.772 47.0554C445.347 47.0554 445 46.8304 445 46.5554C445 46.2804 444.325 46.0554 443.5 46.0554C442.675 46.0554 442 45.8304 442 45.5554C442 45.2804 441.775 45.0554 441.5 45.0554C441.225 45.0554 441 45.2804 441 45.5554Z" fill="#311726"/>
</svg>
